<svg width="24" height="25" viewBox="0 0 24 25" fill="none" xmlns="http://www.w3.org/2000/svg">
<path fill-rule="evenodd" clip-rule="evenodd" d="M3 2.35059H5V4.35059H7V6.35059H5V20.3506H19V6.35059H17V4.35059H19V2.35059H21V20.3506V22.3506H3V20.3506V2.35059ZM15 4.35059V2.35059H17V4.35059H15ZM13 4.35059H15V6.35059H13V4.35059ZM11 4.35059V2.35059H13V4.35059H11ZM9 4.35059H11V6.35059H9V4.35059ZM9 4.35059V2.35059H7V4.35059H9ZM17 8.35059H7V10.3506H17V8.35059ZM7 12.3506H17V14.3506H7V12.3506ZM17 18.3506V16.3506H13V18.3506H17Z" fill="white"/>
</svg>
