<svg width="16" height="17" viewBox="0 0 16 17" fill="none" xmlns="http://www.w3.org/2000/svg">
<path d="M9.33329 1.83337H3.99996C3.64634 1.83337 3.3072 1.97385 3.05715 2.2239C2.8071 2.47395 2.66663 2.81309 2.66663 3.16671V13.8334C2.66663 14.187 2.8071 14.5261 3.05715 14.7762C3.3072 15.0262 3.64634 15.1667 3.99996 15.1667H12C12.3536 15.1667 12.6927 15.0262 12.9428 14.7762C13.1928 14.5261 13.3333 14.187 13.3333 13.8334V5.83337L9.33329 1.83337Z" stroke="#C1C3CB" stroke-width="1.2" stroke-linecap="round" stroke-linejoin="round"/>
<path d="M9.33337 1.83337V5.83337H13.3334" stroke="#C1C3CB" stroke-width="1.2" stroke-linecap="round" stroke-linejoin="round"/>
<path d="M10.6667 9.16663H5.33337" stroke="#C1C3CB" stroke-width="1.2" stroke-linecap="round" stroke-linejoin="round"/>
<path d="M10.6667 11.8334H5.33337" stroke="#C1C3CB" stroke-width="1.2" stroke-linecap="round" stroke-linejoin="round"/>
<path d="M6.66671 6.5H6.00004H5.33337" stroke="#C1C3CB" stroke-width="1.2" stroke-linecap="round" stroke-linejoin="round"/>
</svg>
