<svg width="16" height="17" viewBox="0 0 16 17" fill="none" xmlns="http://www.w3.org/2000/svg">
<path d="M11.3333 14.5V13.1667C11.3333 12.4594 11.0523 11.7811 10.5522 11.281C10.0521 10.781 9.37387 10.5 8.66663 10.5H3.33329C2.62605 10.5 1.94777 10.781 1.44767 11.281C0.947578 11.7811 0.666626 12.4594 0.666626 13.1667V14.5" stroke="#C1C3CB" stroke-width="1.2" stroke-linecap="round" stroke-linejoin="round"/>
<path d="M6.00004 7.83333C7.4728 7.83333 8.66671 6.63943 8.66671 5.16667C8.66671 3.69391 7.4728 2.5 6.00004 2.5C4.52728 2.5 3.33337 3.69391 3.33337 5.16667C3.33337 6.63943 4.52728 7.83333 6.00004 7.83333Z" stroke="#C1C3CB" stroke-width="1.2" stroke-linecap="round" stroke-linejoin="round"/>
<path d="M15.3334 14.5V13.1667C15.3329 12.5758 15.1363 12.0019 14.7743 11.5349C14.4123 11.0679 13.9055 10.7344 13.3334 10.5867" stroke="#C1C3CB" stroke-width="1.2" stroke-linecap="round" stroke-linejoin="round"/>
<path d="M10.6666 2.58667C11.2402 2.73354 11.7487 3.06714 12.1117 3.53488C12.4748 4.00262 12.6719 4.57789 12.6719 5.17C12.6719 5.76212 12.4748 6.33739 12.1117 6.80513C11.7487 7.27287 11.2402 7.60647 10.6666 7.75334" stroke="#C1C3CB" stroke-width="1.2" stroke-linecap="round" stroke-linejoin="round"/>
</svg>
