<svg width="16" height="16" viewBox="0 0 16 16" fill="none" xmlns="http://www.w3.org/2000/svg">
<g clip-path="url(#clip0_88:4110)">
<path d="M9.02496 7.88517C9.02496 10.399 7.00463 12.4368 4.51256 12.4368C2.02049 12.4368 0 10.3985 0 7.88517C0 5.37182 2.02033 3.33337 4.51256 3.33337C7.00478 3.33337 9.02496 5.37136 9.02496 7.88517Z" fill="white"/>
<path d="M13.9752 7.88514C13.9752 10.2514 12.965 12.1703 11.7189 12.1703C10.4728 12.1703 9.46265 10.2514 9.46265 7.88514C9.46265 5.51893 10.4727 3.59998 11.7188 3.59998C12.9649 3.59998 13.9751 5.51832 13.9751 7.88514" fill="white"/>
<path d="M16 7.8851C16 10.0046 15.6448 11.7239 15.2065 11.7239C14.7682 11.7239 14.4131 10.0051 14.4131 7.8851C14.4131 5.76509 14.7683 4.04626 15.2065 4.04626C15.6446 4.04626 16 5.76494 16 7.8851Z" fill="white"/>
</g>
<defs>
<clipPath id="clip0_88:4110">
<rect width="16" height="16" fill="white"/>
</clipPath>
</defs>
</svg>
