<svg width="81" height="80" viewBox="0 0 81 80" fill="none" xmlns="http://www.w3.org/2000/svg">
<g clip-path="url(#clip0_135:823)">
<path d="M69.5931 22.5694C69.2718 22.3371 68.9512 22.1235 68.6313 21.9287C73.5018 18.0441 76.5029 7.92624 71.0754 4.58109C66.6139 1.83116 61.9462 3.01301 58.5555 6.81005C57.3988 4.61199 54.9788 3.00743 54.0858 2.41522C48.6665 0.0742568 45.1482 0.317579 41.7034 0.527C47.4269 4.07857 50.0277 8.83001 50.9249 14.2921C52.5876 10.2938 50.6672 5.82474 50.6672 5.82474C51.4455 5.93631 52.4644 6.2689 53.634 7.6546C55.7434 10.1539 53.9003 16.5181 53.7199 17.2579C52.3656 21.1785 50.1548 25.5296 47.3049 28.1474C47.3785 27.6003 47.4388 27.0442 47.4857 26.4788C47.9153 21.2472 46.9613 16.827 45.6074 13.3308L48.8989 15.3439C46.2495 8.19746 40.2443 2.5504 40.2443 2.5504C40.2443 2.5504 34.2391 8.19746 31.5898 15.3439L34.8808 13.3308C33.527 16.827 32.5747 21.2472 33.0029 26.4788C33.0298 26.8119 33.0622 27.1417 33.1 27.4684C30.5946 24.8314 28.6381 20.8987 27.3942 17.3154C27.337 16.9721 25.2848 10.2419 27.4685 7.6546C28.6381 6.2689 29.6591 5.93803 30.4356 5.82474C30.4356 5.82474 28.5139 10.2938 30.1779 14.2921C31.0752 8.83001 33.6756 4.07857 39.399 0.527C35.9546 0.318009 32.436 0.0746859 27.0166 2.41522C26.1228 3.00786 23.6998 4.61456 22.5444 6.81477C19.1533 3.0143 14.4834 1.8303 10.0198 4.58324C4.59229 7.92839 7.59382 18.0462 12.4638 21.9308C12.1442 22.1265 11.8238 22.3401 11.5025 22.5715C4.90927 27.335 11.4166 40.4311 18.3814 42.3257C16.8415 44.1414 16.2806 46.5334 16.336 48.3255C16.403 50.482 17.2144 56.6912 26.0119 56.4191C32.4445 56.2204 35.09 52.471 37.8239 52.3886C40.5579 52.3062 41.1854 52.9894 41.1854 52.9894C41.1854 52.9894 40.0145 50.6755 37.26 50.7605C36.9885 50.7691 36.7072 50.8193 36.4112 50.8549C29.8455 51.6445 28.4465 47.808 28.4465 47.808C28.4465 47.808 27.3611 51.2291 31.2934 52.5817C29.9035 53.0873 28.5015 53.5113 27.2056 53.5512C23.9073 53.6529 20.13 51.4969 20.7253 48.4418C22.943 39.4685 38.2036 49.234 40.3182 50.9012C40.3182 50.9012 49.1476 57.389 55.0939 57.5529C63.3245 57.7817 64.2562 52.1312 64.157 48.9062C64.114 47.5286 63.5127 44.4963 61.1004 42.557C68.5953 42.503 76.694 27.6989 69.5931 22.5694ZM27.3581 39.7487C29.7497 35.9457 24.229 29.6781 24.229 29.6781C21.5376 26.7599 18.8599 26.5638 18.8599 26.5638C18.8599 26.5638 22.2446 30.2334 22.5139 35.8792C24 34.9424 24.232 33.0241 24.232 33.0241C24.232 33.0241 28.5273 39.0617 21.919 38.6922C15.3107 38.3227 12.0227 29.4566 15.8115 26.5943C20.2679 23.2281 24.6598 26.5883 27.8623 33.3708C29.1668 36.1328 30.7458 38.8252 32.4342 41.0919C30.8927 40.4396 29.1788 39.935 27.3568 39.7487H27.3581ZM33.801 36.8306C32.6726 35.3286 31.5022 33.4455 30.3781 31.093C28.1978 26.5299 25.4999 23.2024 22.492 21.512C24.8973 18.2557 20.5664 12.0936 20.5664 12.0936C18.4484 9.21838 16.1259 8.81928 16.1259 8.81928C16.1259 8.81928 18.789 12.4339 18.5743 17.5871C19.9487 16.8575 20.3031 15.1345 20.3031 15.1345C20.3031 15.1345 23.5718 20.9768 17.8316 20.0945C12.0914 19.2122 9.92444 10.8826 13.4612 8.59355C17.6207 5.90241 21.1879 9.31966 23.4455 15.7486C25.5412 21.7158 29.906 28.9528 34.0759 33.4C34.1807 34.6407 34.1541 35.9187 33.8014 36.8314L33.801 36.8306ZM36.0418 30.8561C36.0418 30.8561 37.808 32.268 39.0447 41.0911C33.923 36.2392 36.0423 30.8569 36.0423 30.8569L36.0418 30.8561ZM42.047 41.0911C43.2832 32.268 45.0494 30.8561 45.0494 30.8561C45.0494 30.8561 47.1717 36.2392 42.0475 41.0919L42.047 41.0911ZM59.9974 48.3006C58.5873 57.5559 48.8396 53.7705 43.4005 48.6787C44.9227 47.52 50.5478 48.2028 52.6899 51.1038C52.284 45.7516 47.9415 45.1817 45.7139 45.5039C48.0523 45.0182 50.5551 43.7642 53.2843 43.6797C56.5956 43.5771 60.4669 45.2224 59.9978 48.3006H59.9974ZM59.1731 38.6922C52.5666 39.0617 56.8597 33.0241 56.8597 33.0241C56.8597 33.0241 57.093 34.9424 58.5778 35.8792C58.8467 30.2334 62.2314 26.5638 62.2314 26.5638C62.2314 26.5638 59.5541 26.7595 56.8623 29.6781C56.8623 29.6781 50.1853 37.258 54.6979 40.8044C54.6232 40.8044 54.5497 40.8044 54.4741 40.8087C51.1079 40.913 49.0556 41.776 47.4728 42.5875C49.602 40.0637 51.6229 36.7696 53.2285 33.3708C56.4319 26.5904 60.823 23.2281 65.2793 26.5943C69.0695 29.4566 65.7801 38.3223 59.1736 38.6922H59.1731ZM63.2588 20.0954C57.519 20.976 60.7877 15.1354 60.7877 15.1354C60.7877 15.1354 61.1438 16.8597 62.5162 17.5879C62.3014 12.4348 64.9645 8.82014 64.9645 8.82014C64.9645 8.82014 62.642 9.21881 60.524 12.0945C60.524 12.0945 56.1944 18.2565 58.5984 21.5128C55.5918 23.2032 52.8926 26.5308 50.7119 31.0938C49.5565 33.5129 48.3495 35.4354 47.1932 36.9593C46.8088 36.0809 46.7603 34.8166 46.8517 33.5738C51.0701 29.143 55.5213 21.7952 57.6436 15.7508C59.9012 9.32181 63.4684 5.90456 67.6284 8.5957C71.1664 10.8834 68.9994 19.2131 63.2592 20.0954H63.2588Z" fill="white"/>
<path d="M6.33982 68.8109H4.41676C3.7623 68.8109 3.31403 69.0997 3.07197 69.6772C2.99128 69.8767 2.95094 70.0867 2.95094 70.3072C2.95094 70.7378 3.23335 71.058 3.79816 71.268C3.85195 71.289 4.35401 71.4255 5.30433 71.6775C6.44292 71.982 7.23187 72.4388 7.67117 73.0478C8.0746 73.6149 8.27632 74.3446 8.27632 75.2372C8.27632 76.3187 7.94012 77.2165 7.26773 77.9305C6.62223 78.613 5.79294 78.9543 4.77986 78.9543H0.0999756L0.9203 75.2372L1.75407 77.0957H3.63678C4.48849 77.0957 5.07571 76.7755 5.39846 76.1349C5.51501 75.8934 5.57329 75.6414 5.57329 75.3789C5.57329 74.7909 5.25502 74.3604 4.61848 74.0874C4.49297 74.0349 3.97298 73.8879 3.05852 73.6464C2.01855 73.3628 1.29684 72.9481 0.893404 72.4021C0.516862 71.8875 0.328591 71.205 0.328591 70.3545C0.328591 69.3465 0.637893 68.5064 1.2565 67.8344C1.32822 67.7609 1.39546 67.6979 1.45822 67.6454L0.288247 66.9524H7.38876V69.5355L6.33982 68.8109Z" fill="white"/>
<path d="M9.92934 72.9376C9.92934 70.869 10.4807 69.2572 11.5834 68.1022C11.8345 67.8502 12.0989 67.6296 12.3769 67.4406L11.2741 66.7634H14.6092C15.8375 66.7634 16.8864 67.2516 17.756 68.2282C18.7691 69.3832 19.2757 70.953 19.2757 72.9376C19.2667 74.7856 18.8139 76.2925 17.9174 77.458L19.2891 79.6001H15.5102L15.6447 79.0015C15.2861 79.096 14.9409 79.1433 14.6092 79.1433C13.3899 79.1433 12.3455 78.655 11.4759 77.6785C10.4448 76.513 9.92934 74.9327 9.92934 72.9376ZM14.5151 77.1115L13.6275 74.0874L15.7523 76.4027C16.2902 75.6362 16.5592 74.4916 16.5592 72.9691C16.5592 71.2365 16.2319 70.008 15.5775 69.2835C15.2727 68.9579 14.9499 68.7952 14.6092 68.7952C14.0354 68.7952 13.5603 69.1942 13.1837 69.9922C12.8251 70.7588 12.6458 71.751 12.6458 72.9691C12.6458 74.6911 12.9731 75.9092 13.6275 76.6232C13.9055 76.9172 14.2013 77.08 14.5151 77.1115Z" fill="white"/>
<path d="M24.2503 74.9064C24.2503 75.6729 24.5507 76.2767 25.1513 76.7177C25.5189 76.9907 25.9134 77.1272 26.3348 77.1272C26.9892 77.1272 27.4599 76.8122 27.7468 76.1822C27.9082 75.8147 27.9888 75.3894 27.9888 74.9064V68.3384L26.4423 66.9524H29.7909V74.9064C29.7909 76.6285 29.2485 77.8518 28.1637 78.5763C27.5899 78.9648 26.9265 79.1591 26.1734 79.1591C25.0348 79.1591 24.0307 78.7758 23.161 78.0093C22.2376 77.1797 21.7714 76.1454 21.7625 74.9064V68.3384L20.2159 66.9524H24.2503V74.9064Z" fill="white"/>
<path d="M32.9501 68.3384L31.4036 66.9524H35.4379V77.0957L35.8548 78.9543H32.5332L32.9501 77.0957V68.3384Z" fill="white"/>
<path d="M39.6192 68.8109L41.1522 69.504V77.0957H42.2012C43.0708 77.0957 43.7208 76.5287 44.1511 75.3947C44.4201 74.6806 44.5546 73.8721 44.5546 72.9691C44.5546 71.6145 44.2811 70.533 43.7342 69.7245C43.3129 69.1259 42.7974 68.8214 42.1877 68.8109H39.6192ZM38.6644 77.0957V68.3384L37.1178 66.9524H43.2098C44.5815 66.9524 45.6438 67.6611 46.3969 69.0787C46.9797 70.1707 47.271 71.457 47.271 72.9376C47.271 74.6176 46.9124 76.0299 46.1952 77.1745C45.4332 78.3505 44.438 78.9438 43.2098 78.9543H38.2475L38.6644 77.0957Z" fill="white"/>
<path d="M50.6454 68.8109L52.1785 69.504V77.0957H53.2274C54.097 77.0957 54.747 76.5287 55.1774 75.3947C55.4463 74.6806 55.5808 73.8721 55.5808 72.9691C55.5808 71.6145 55.3074 70.533 54.7605 69.7245C54.3391 69.1259 53.8236 68.8214 53.214 68.8109H50.6454ZM49.6906 77.0957V68.3384L48.1441 66.9524H54.236C55.6077 66.9524 56.6701 67.6611 57.4232 69.0787C58.0059 70.1707 58.2973 71.457 58.2973 72.9376C58.2973 74.6176 57.9387 76.0299 57.2214 77.1745C56.4594 78.3505 55.4642 78.9438 54.236 78.9543H49.2737L49.6906 77.0957Z" fill="white"/>
<path d="M62.6937 74.9379H65.5581L63.8099 69.0314L63.6485 71.6145L62.6937 74.9379ZM61.6985 66.9524C61.6985 66.9524 63.0747 66.9524 65.827 66.9524L68.8394 77.0957L69.6866 78.9543C69.6866 78.9543 68.7139 78.9543 66.7684 78.9543L66.1095 76.7965L61.1875 76.8122L62.0213 77.3005L61.5372 78.9543H59.4527L60.2596 77.1115L62.8954 68.0392L61.6985 66.9524Z" fill="white"/>
<path d="M70.8689 72.9376C70.8689 70.8375 71.4607 69.2152 72.6441 68.0707C72.922 67.8082 73.2134 67.5876 73.5182 67.4091L72.4693 66.7634H75.8043C77.1043 66.7634 78.216 67.2516 79.1394 68.2282C80.2153 69.3832 80.7532 70.953 80.7532 72.9376C80.7532 75.0167 80.1704 76.639 79.005 77.8045C78.0905 78.697 77.0236 79.1433 75.8043 79.1433C74.5044 79.1433 73.3972 78.6498 72.4827 77.6627C71.4069 76.4972 70.8689 74.9222 70.8689 72.9376ZM78.0367 72.9691C78.0367 71.289 77.6781 70.0815 76.9609 69.3465C76.6112 68.9789 76.2257 68.7952 75.8043 68.7952C75.1499 68.7952 74.6075 69.1942 74.1771 69.9922C73.7737 70.7588 73.572 71.751 73.572 72.9691C73.572 74.6386 73.9306 75.8409 74.6478 76.576C75.0064 76.933 75.3919 77.1115 75.8043 77.1115C76.4588 77.1115 77.0012 76.7177 77.4315 75.9302C77.835 75.1637 78.0367 74.1766 78.0367 72.9691Z" fill="white"/>
</g>
<defs>
<clipPath id="clip0_135:823">
<rect width="80" height="80" fill="white" transform="translate(0.5)"/>
</clipPath>
</defs>
</svg>
