<svg width="24" height="25" viewBox="0 0 24 25" fill="none" xmlns="http://www.w3.org/2000/svg">
<path fill-rule="evenodd" clip-rule="evenodd" d="M6 2.35059H18V4.35059H6V2.35059ZM4 6.35059V4.35059H6V6.35059H4ZM4 18.3506V6.35059H2V18.3506H4ZM6 20.3506V18.3506H4V20.3506H6ZM18 20.3506V22.3506H6V20.3506H18ZM20 18.3506V20.3506H18V18.3506H20ZM20 6.35059H22V18.3506H20V6.35059ZM20 6.35059V4.35059H18V6.35059H20ZM11 5.35059H13V7.35059H16V9.35059H13H11H10V11.3506H14H16V13.3506V15.3506V17.3506H14H13V19.3506H11V17.3506H8V15.3506H11H13H14V13.3506H10H8V11.3506V9.35059V7.35059H10H11V5.35059Z" fill="white"/>
</svg>
