<svg width="16" height="16" viewBox="0 0 16 16" fill="none" xmlns="http://www.w3.org/2000/svg">
<path d="M8 16C12.4183 16 16 12.4183 16 8C16 3.58172 12.4183 0 8 0C3.58172 0 0 3.58172 0 8C0 12.4183 3.58172 16 8 16Z" fill="white"/>
<path fill-rule="evenodd" clip-rule="evenodd" d="M3.62118 7.91547C5.95334 6.89938 7.50848 6.22952 8.2866 5.90587C10.5083 4.9818 10.9699 4.82128 11.2708 4.81597C11.337 4.81481 11.485 4.83121 11.5808 4.90899C11.6618 4.97466 11.684 5.06337 11.6947 5.12563C11.7053 5.1879 11.7186 5.32974 11.7081 5.44057C11.5877 6.70556 11.0667 9.77535 10.8017 11.1922C10.6896 11.7917 10.4687 11.9927 10.255 12.0123C9.7904 12.0551 9.43762 11.7053 8.98766 11.4104C8.28356 10.9488 7.88578 10.6615 7.20233 10.2111C6.41248 9.69061 6.9245 9.40454 7.37464 8.93701C7.49244 8.81466 9.53937 6.95282 9.57898 6.78392C9.58394 6.7628 9.58854 6.68406 9.54176 6.64248C9.49498 6.60091 9.42595 6.61512 9.37612 6.62643C9.30551 6.64246 8.18069 7.38592 6.00168 8.85681C5.6824 9.07605 5.39321 9.18287 5.13411 9.17727C4.84847 9.1711 4.29901 9.01577 3.89054 8.88299C3.38954 8.72014 2.99136 8.63403 3.02603 8.35745C3.04409 8.2134 3.24247 8.06607 3.62118 7.91547Z" fill="#282C31"/>
</svg>
