<svg width="195" height="35" viewBox="0 0 195 35" fill="none" xmlns="http://www.w3.org/2000/svg">
<path fill-rule="evenodd" clip-rule="evenodd" d="M36.5104 12.8102C36.7002 12.9261 36.8905 13.0532 37.0812 13.1914C41.2963 16.2436 36.489 25.0525 32.0401 25.0846C33.472 26.2386 33.8289 28.0429 33.8544 28.8626C33.9133 30.7815 33.3603 34.1437 28.4747 34.0076C24.945 33.9101 19.7039 30.0497 19.7039 30.0497C18.4487 29.0576 9.39014 23.2469 8.07376 28.5863C7.72038 30.4041 9.96253 31.687 11.9204 31.6265C12.6896 31.6027 13.5218 31.3504 14.3469 31.0496C12.0127 30.2448 12.657 28.2091 12.657 28.2091C12.657 28.2091 13.4874 30.4919 17.3848 30.0221C17.436 30.0159 17.4865 30.009 17.5364 30.0022C17.6574 29.9856 17.7745 29.9695 17.8886 29.9659C19.5237 29.9154 20.2187 31.2922 20.2187 31.2922C20.2187 31.2922 19.8462 30.8857 18.2234 30.9347C17.5826 30.9541 16.9501 31.3136 16.1842 31.7489C15.0101 32.4161 13.5227 33.2614 11.2119 33.333C5.98969 33.4949 5.50807 29.8002 5.46829 28.5171C5.4354 27.4507 5.76838 26.0274 6.68243 24.947C2.54819 23.8196 -1.31451 16.0271 2.59918 13.1927C2.78989 13.055 2.9801 12.9279 3.16979 12.8114C0.279011 10.5 -1.50267 4.47959 1.71905 2.48913C4.36863 0.851056 7.14059 1.55557 9.15353 3.81696C9.83938 2.50777 11.2776 1.55174 11.8082 1.1991C14.9899 -0.178371 17.068 -0.0517817 19.0913 0.0714732L19.1583 0.0755542C15.7609 2.18884 14.2174 5.01609 13.6848 8.26619C12.697 5.88709 13.8377 3.22786 13.8377 3.22786C13.3768 3.29527 12.7707 3.49215 12.0764 4.31668C10.9045 5.7086 11.788 9.11568 11.9932 9.90713C12.0149 9.99104 12.0291 10.0456 12.0323 10.0651C12.7707 12.1973 13.9321 14.5374 15.4193 16.1065C15.3968 15.9121 15.3776 15.7158 15.3616 15.5177C15.1074 12.4047 15.6727 9.77456 16.4763 7.69421L14.5228 8.89206C16.0954 4.6397 19.6601 1.27953 19.6601 1.27953C19.6601 1.27953 23.2247 4.6397 24.7973 8.89206L22.8436 7.69421C23.6472 9.77456 24.2135 12.4047 23.9585 15.5177C23.9306 15.854 23.8949 16.185 23.8512 16.5105C25.5429 14.9528 26.8552 12.3638 27.659 10.0309C27.6658 10.0033 27.6764 9.9625 27.69 9.90991C27.8942 9.1245 28.7816 5.71052 27.6081 4.31668C26.9138 3.49215 26.309 3.29425 25.847 3.22786C25.847 3.22786 26.987 5.88709 26 8.26619C25.4674 5.01609 23.9236 2.18884 20.5262 0.0755542L20.5923 0.0715183C22.6162 -0.0520006 24.6941 -0.178822 27.8763 1.1991L27.8766 1.19933C28.407 1.55191 29.843 2.50653 30.5294 3.81415C32.5421 1.5548 35.3128 0.851565 37.9611 2.48785C41.1828 4.47832 39.4014 10.4987 36.5104 12.8102ZM10.1535 17.4213C10.1535 17.4213 13.4305 21.1507 12.0109 23.4136H12.0101C13.0917 23.5244 14.109 23.8247 15.0241 24.2129C14.0218 22.8641 13.0846 21.262 12.3102 19.6186C10.4092 15.5828 7.80223 13.5834 5.15698 15.5863C2.90794 17.2895 4.85969 22.5651 8.78231 22.7849C12.7049 23.0048 10.1553 19.4123 10.1553 19.4123C10.1553 19.4123 10.0176 20.5537 9.13543 21.1111C8.97557 17.7517 6.96646 15.5682 6.96646 15.5682C6.96646 15.5682 8.5559 15.6849 10.1535 17.4213ZM13.8036 18.2632C14.4708 19.663 15.1656 20.7835 15.8354 21.6772L15.8356 21.6777C16.0449 21.1346 16.0608 20.3742 15.9985 19.636C13.5234 16.9898 10.9324 12.6835 9.68845 9.13285C8.34836 5.30744 6.23089 3.27408 3.76182 4.87539C1.66245 6.23743 2.94874 11.1938 6.35607 11.7188C9.76341 12.2438 7.82313 8.76744 7.82313 8.76744C7.82313 8.76744 7.61279 9.79268 6.7969 10.2268C6.92439 7.16052 5.34361 5.0097 5.34361 5.0097C5.34361 5.0097 6.7222 5.24718 7.97943 6.95803C7.97943 6.95803 10.5502 10.6246 9.12243 12.5622C10.9079 13.568 12.5094 15.548 13.8036 18.2632ZM18.948 24.2124C18.2139 18.9623 17.1655 18.1222 17.1655 18.1222L17.1658 18.1227C17.1658 18.1227 15.9078 21.3254 18.948 24.2124ZM22.5124 18.1222C22.5124 18.1222 21.4639 18.9623 20.7302 24.2124L20.7304 24.2129C23.7721 21.3254 22.5124 18.1222 22.5124 18.1222ZM21.5335 28.7272C24.7622 31.757 30.5483 34.0094 31.3853 28.5023H31.3856C31.664 26.6706 29.366 25.6916 27.4005 25.7526C26.3727 25.7845 25.3991 26.0965 24.4701 26.3942C23.9347 26.5657 23.4142 26.7325 22.9068 26.8381C24.229 26.6464 26.8067 26.9855 27.0476 30.1702C25.7761 28.444 22.4371 28.0378 21.5335 28.7272ZM29.5228 19.4123C29.5228 19.4123 26.9745 23.0048 30.8961 22.7849H30.8963C34.8179 22.5648 36.7704 17.2895 34.5206 15.5863C31.8754 13.5834 29.2689 15.584 27.3674 19.6186C26.4143 21.641 25.2147 23.601 23.9509 25.1028C24.8904 24.6199 26.1086 24.1064 28.1068 24.0443C28.1516 24.0418 28.1951 24.0418 28.2394 24.0418H28.2396C25.561 21.9316 29.5244 17.4213 29.5244 17.4213C31.1222 15.6847 32.7114 15.5682 32.7114 15.5682C32.7114 15.5682 30.7023 17.7517 30.5427 21.1111C29.6613 20.5537 29.5228 19.4123 29.5228 19.4123ZM31.8545 8.76796C31.8545 8.76796 29.9142 12.2433 33.3213 11.7193H33.3215C36.7289 11.1943 38.0152 6.23794 35.915 4.87666C33.4457 3.27536 31.3282 5.30872 29.9881 9.13413C28.7284 12.7308 26.0862 17.1029 23.5822 19.7394C23.5279 20.4789 23.5567 21.2311 23.7849 21.7538C24.4712 20.8471 25.1877 19.7031 25.8735 18.2637C27.168 15.5486 28.7702 13.5686 30.5549 12.5627C29.1279 10.6251 31.6979 6.95854 31.6979 6.95854C32.9552 5.24743 34.3337 5.01021 34.3337 5.01021C34.3337 5.01021 32.753 7.16104 32.8805 10.2273C32.0658 9.79396 31.8545 8.76796 31.8545 8.76796ZM66.4132 7.58475C64.3632 9.72699 63.3382 12.7164 63.3382 16.553C63.3382 20.2532 64.2966 23.1842 66.2132 25.3459C67.8299 27.1571 69.7715 28.0627 72.0382 28.0627C72.6548 28.0627 73.2965 27.975 73.9632 27.7998L73.7132 28.9098H80.7381L78.1881 24.9369C79.8548 22.7752 80.6964 19.9806 80.7131 16.553C80.7131 12.8722 79.7714 9.96069 77.8881 7.81845C76.2715 6.00728 74.3215 5.10169 72.0382 5.10169H65.8382L67.8882 6.35783C67.3715 6.70837 66.8799 7.11735 66.4132 7.58475ZM71.0382 22.9797L71.8632 24.2943C71.2798 24.2358 70.7298 23.934 70.2132 23.3887C68.9965 22.0644 68.3882 19.8053 68.3882 16.6114C68.3882 14.3523 68.7215 12.5119 69.3882 11.0902C70.0882 9.61014 70.9715 8.8701 72.0382 8.8701C72.6715 8.8701 73.2715 9.17196 73.8382 9.77568C75.0548 11.1195 75.6631 13.398 75.6631 16.6114C75.6631 19.4353 75.1631 21.558 74.1631 22.9797H71.0382ZM53.0903 8.89931H56.6653L58.6153 10.2431V5.45224H45.4154L47.5904 6.73759C47.4737 6.83496 47.3487 6.95181 47.2154 7.08814C46.0654 8.33453 45.4904 9.89253 45.4904 11.7621C45.4904 13.3396 45.8404 14.6055 46.5404 15.5597C47.2904 16.5724 48.632 17.3417 50.5654 17.8675C52.2654 18.3155 53.232 18.5881 53.4653 18.6855C54.6487 19.1918 55.2403 19.9903 55.2403 21.0809C55.2403 21.5678 55.132 22.0352 54.9153 22.4831C54.3153 23.6711 53.2237 24.2651 51.6404 24.2651H48.1404L46.5904 20.818L45.0654 27.7121H53.7653C55.6487 27.7121 57.1903 27.0792 58.3903 25.8133C59.6403 24.489 60.2653 22.8239 60.2653 20.818C60.2653 19.1626 59.8903 17.8091 59.1403 16.7575C58.3236 15.6279 56.857 14.7807 54.7403 14.216C52.9737 13.7486 52.0404 13.4954 51.9404 13.4564C50.8904 13.0669 50.3654 12.473 50.3654 11.6745C50.3654 11.2655 50.4404 10.876 50.5904 10.506C51.0404 9.43487 51.8737 8.89931 53.0903 8.89931ZM89.961 20.2045C89.961 21.6262 90.5193 22.746 91.636 23.564C92.3193 24.0703 93.0526 24.3235 93.836 24.3235C95.0526 24.3235 95.9276 23.7392 96.4609 22.5707C96.7609 21.8891 96.9109 21.1004 96.9109 20.2045V8.02293L94.036 5.45224H100.261V20.2045C100.261 23.3984 99.2526 25.6672 97.2359 27.011C96.1693 27.7316 94.936 28.0919 93.536 28.0919C91.4193 28.0919 89.5527 27.381 87.936 25.9594C86.2194 24.4209 85.3527 22.5026 85.336 20.2045V8.02293L82.4611 5.45224H89.961V20.2045ZM103.259 5.45224L106.134 8.02293V24.2651L105.359 27.7121H111.534L110.759 24.2651V5.45224H103.259ZM118.532 8.89931L121.382 10.1847V24.2651H123.332C124.948 24.2651 126.157 23.2134 126.957 21.1101C127.457 19.7858 127.707 18.2862 127.707 16.6114C127.707 14.0991 127.198 12.0932 126.182 10.5936C125.398 9.48356 124.44 8.91878 123.307 8.89931H118.532ZM116.757 24.2651V8.02293L113.882 5.45224H125.207C127.757 5.45224 129.732 6.7668 131.132 9.39592C132.215 11.4213 132.757 13.807 132.757 16.553C132.757 19.669 132.09 22.2883 130.757 24.4111C129.34 26.5923 127.49 27.6926 125.207 27.7121H115.982L116.757 24.2651ZM141.88 10.1847L139.03 8.89931H143.804C144.938 8.91878 145.896 9.48356 146.679 10.5936C147.696 12.0932 148.204 14.0991 148.204 16.6114C148.204 18.2862 147.954 19.7858 147.454 21.1101C146.654 23.2134 145.446 24.2651 143.829 24.2651H141.88V10.1847ZM137.255 8.02293V24.2651L136.48 27.7121H145.704C147.988 27.6926 149.838 26.5923 151.254 24.4111C152.588 22.2883 153.254 19.669 153.254 16.553C153.254 13.807 152.713 11.4213 151.629 9.39592C150.229 6.7668 148.254 5.45224 145.704 5.45224H134.38L137.255 8.02293ZM161.427 20.2629H166.752L163.502 9.30828L163.202 14.0991L161.427 20.2629ZM159.577 5.45224H167.252L172.852 24.2651L174.427 27.7121H169.002L167.777 23.71L158.627 23.7392L160.177 24.6448L159.277 27.7121H155.402L156.902 24.2943L161.802 7.4679L159.577 5.45224ZM179.925 7.52632C177.725 9.64909 176.625 12.658 176.625 16.553C176.625 20.2337 177.625 23.155 179.625 25.3167C181.325 27.1473 183.383 28.0627 185.8 28.0627C188.067 28.0627 190.05 27.235 191.75 25.5796C193.917 23.4179 195 20.409 195 16.553C195 12.8722 194 9.96069 192 7.81845C190.283 6.00728 188.217 5.10169 185.8 5.10169H179.6L181.55 6.2994C180.983 6.63048 180.442 7.03945 179.925 7.52632ZM187.95 9.89253C189.283 11.2558 189.95 13.4954 189.95 16.6114C189.95 18.851 189.575 20.6817 188.825 22.1033C188.025 23.564 187.017 24.2943 185.8 24.2943C185.033 24.2943 184.317 23.9632 183.65 23.301C182.317 21.9378 181.65 19.7079 181.65 16.6114C181.65 14.3523 182.025 12.5119 182.775 11.0902C183.575 9.61014 184.583 8.8701 185.8 8.8701C186.583 8.8701 187.3 9.21091 187.95 9.89253Z" fill="white"/>
</svg>
